<?xml version="1.0" encoding="UTF-8" standalone="no"?>
<!DOCTYPE svg PUBLIC "-//W3C//DTD SVG 1.1//EN"
 "http://www.w3.org/Graphics/SVG/1.1/DTD/svg11.dtd">
<!-- Generated by graphviz version 2.43.0 (0)
 -->
<!-- Title: suffixtree Pages: 1 -->
<svg width="350pt" height="235pt"
 viewBox="0.00 0.00 453.00 305.00" xmlns="http://www.w3.org/2000/svg" xmlns:xlink="http://www.w3.org/1999/xlink">
<g id="graph0" class="graph" transform="scale(1 1) rotate(0) translate(4 301)">
<title>suffixtree</title>
<polygon fill="white" stroke="transparent" points="-4,4 -4,-301 449,-301 449,4 -4,4"/>
<!-- 0 -->
<g id="node1" class="node">
<title>0</title>
<polygon fill="none" stroke="black" points="36,-210 0,-210 0,-174 36,-174 36,-210"/>
<text text-anchor="middle" x="18" y="-188.3" font-family="Times,serif" font-size="14.00">11</text>
</g>
<!-- 1 -->
<g id="node2" class="node">
<title>1</title>
<ellipse fill="none" stroke="black" cx="126" cy="-279" rx="18" ry="18"/>
</g>
<!-- 1&#45;&gt;0 -->
<g id="edge1" class="edge">
<title>1&#45;&gt;0</title>
<path fill="none" stroke="black" d="M112.32,-267.23C95.28,-253.83 65.81,-230.63 44.33,-213.72"/>
<polygon fill="black" stroke="black" points="46.27,-210.8 36.25,-207.36 41.94,-216.3 46.27,-210.8"/>
<text text-anchor="middle" x="83" y="-231.8" font-family="Times,serif" font-size="14.00">ϵ</text>
</g>
<!-- 2 -->
<g id="node3" class="node">
<title>2</title>
<ellipse fill="none" stroke="black" cx="72" cy="-192" rx="18" ry="18"/>
</g>
<!-- 1&#45;&gt;2 -->
<g id="edge7" class="edge">
<title>1&#45;&gt;2</title>
<path fill="none" stroke="black" d="M116.59,-263.19C108.39,-250.27 96.34,-231.31 86.83,-216.34"/>
<polygon fill="black" stroke="black" points="89.61,-214.2 81.3,-207.64 83.71,-217.95 89.61,-214.2"/>
<text text-anchor="middle" x="108" y="-231.8" font-family="Times,serif" font-size="14.00"> i</text>
</g>
<!-- 8 -->
<g id="node9" class="node">
<title>8</title>
<polygon fill="none" stroke="black" points="144,-210 108,-210 108,-174 144,-174 144,-210"/>
<text text-anchor="middle" x="126" y="-188.3" font-family="Times,serif" font-size="14.00">0</text>
</g>
<!-- 1&#45;&gt;8 -->
<g id="edge8" class="edge">
<title>1&#45;&gt;8</title>
<path fill="none" stroke="black" d="M126,-260.8C126,-249.16 126,-233.55 126,-220.24"/>
<polygon fill="black" stroke="black" points="129.5,-220.18 126,-210.18 122.5,-220.18 129.5,-220.18"/>
<text text-anchor="middle" x="168.5" y="-231.8" font-family="Times,serif" font-size="14.00"> mississippi</text>
</g>
<!-- 9 -->
<g id="node10" class="node">
<title>9</title>
<ellipse fill="none" stroke="black" cx="234" cy="-192" rx="18" ry="18"/>
</g>
<!-- 1&#45;&gt;9 -->
<g id="edge11" class="edge">
<title>1&#45;&gt;9</title>
<path fill="none" stroke="black" d="M143.65,-274.91C162.72,-270.72 192.93,-261.54 212,-243 218.65,-236.54 223.42,-227.72 226.79,-219.29"/>
<polygon fill="black" stroke="black" points="230.14,-220.33 230.13,-209.73 223.53,-218.02 230.14,-220.33"/>
<text text-anchor="middle" x="229" y="-231.8" font-family="Times,serif" font-size="14.00"> p</text>
</g>
<!-- 15 -->
<g id="node16" class="node">
<title>15</title>
<ellipse fill="none" stroke="black" cx="288" cy="-192" rx="18" ry="18"/>
</g>
<!-- 1&#45;&gt;15 -->
<g id="edge18" class="edge">
<title>1&#45;&gt;15</title>
<path fill="none" stroke="black" d="M143.75,-275.41C167.2,-271.38 209.15,-261.99 240,-243 251.85,-235.71 262.79,-224.8 271.22,-215.03"/>
<polygon fill="black" stroke="black" points="274.01,-217.14 277.68,-207.2 268.61,-212.69 274.01,-217.14"/>
<text text-anchor="middle" x="263.5" y="-231.8" font-family="Times,serif" font-size="14.00"> s</text>
</g>
<!-- 3 -->
<g id="node4" class="node">
<title>3</title>
<polygon fill="none" stroke="black" points="36,-123 0,-123 0,-87 36,-87 36,-123"/>
<text text-anchor="middle" x="18" y="-101.3" font-family="Times,serif" font-size="14.00">10</text>
</g>
<!-- 2&#45;&gt;3 -->
<g id="edge2" class="edge">
<title>2&#45;&gt;3</title>
<path fill="none" stroke="black" d="M62.59,-176.19C54.84,-163.98 43.65,-146.37 34.42,-131.84"/>
<polygon fill="black" stroke="black" points="37.29,-129.84 28.97,-123.27 31.38,-133.59 37.29,-129.84"/>
<text text-anchor="middle" x="53" y="-144.8" font-family="Times,serif" font-size="14.00">ϵ</text>
</g>
<!-- 4 -->
<g id="node5" class="node">
<title>4</title>
<polygon fill="none" stroke="black" points="90,-123 54,-123 54,-87 90,-87 90,-123"/>
<text text-anchor="middle" x="72" y="-101.3" font-family="Times,serif" font-size="14.00">7</text>
</g>
<!-- 2&#45;&gt;4 -->
<g id="edge3" class="edge">
<title>2&#45;&gt;4</title>
<path fill="none" stroke="black" d="M72,-173.8C72,-162.16 72,-146.55 72,-133.24"/>
<polygon fill="black" stroke="black" points="75.5,-133.18 72,-123.18 68.5,-133.18 75.5,-133.18"/>
<text text-anchor="middle" x="86" y="-144.8" font-family="Times,serif" font-size="14.00"> ppi</text>
</g>
<!-- 5 -->
<g id="node6" class="node">
<title>5</title>
<ellipse fill="none" stroke="black" cx="126" cy="-105" rx="18" ry="18"/>
</g>
<!-- 2&#45;&gt;5 -->
<g id="edge6" class="edge">
<title>2&#45;&gt;5</title>
<path fill="none" stroke="black" d="M84.26,-178.35C90.06,-171.96 96.84,-163.91 102,-156 107.07,-148.23 111.72,-139.23 115.55,-131.03"/>
<polygon fill="black" stroke="black" points="118.75,-132.44 119.65,-121.88 112.36,-129.58 118.75,-132.44"/>
<text text-anchor="middle" x="123.5" y="-144.8" font-family="Times,serif" font-size="14.00"> ssi</text>
</g>
<!-- 6 -->
<g id="node7" class="node">
<title>6</title>
<polygon fill="none" stroke="black" points="109,-36 73,-36 73,0 109,0 109,-36"/>
<text text-anchor="middle" x="91" y="-14.3" font-family="Times,serif" font-size="14.00">4</text>
</g>
<!-- 5&#45;&gt;6 -->
<g id="edge4" class="edge">
<title>5&#45;&gt;6</title>
<path fill="none" stroke="black" d="M114.88,-90.42C110.28,-84.22 105.28,-76.57 102,-69 98.89,-61.82 96.62,-53.67 94.98,-46.06"/>
<polygon fill="black" stroke="black" points="98.4,-45.35 93.11,-36.17 91.53,-46.65 98.4,-45.35"/>
<text text-anchor="middle" x="116" y="-57.8" font-family="Times,serif" font-size="14.00"> ppi</text>
</g>
<!-- 7 -->
<g id="node8" class="node">
<title>7</title>
<polygon fill="none" stroke="black" points="163,-36 127,-36 127,0 163,0 163,-36"/>
<text text-anchor="middle" x="145" y="-14.3" font-family="Times,serif" font-size="14.00">1</text>
</g>
<!-- 5&#45;&gt;7 -->
<g id="edge5" class="edge">
<title>5&#45;&gt;7</title>
<path fill="none" stroke="black" d="M129.75,-87.21C132.39,-75.41 135.97,-59.38 139,-45.82"/>
<polygon fill="black" stroke="black" points="142.42,-46.57 141.19,-36.05 135.59,-45.04 142.42,-46.57"/>
<text text-anchor="middle" x="159.5" y="-57.8" font-family="Times,serif" font-size="14.00"> ssippi</text>
</g>
<!-- 10 -->
<g id="node11" class="node">
<title>10</title>
<polygon fill="none" stroke="black" points="198,-123 162,-123 162,-87 198,-87 198,-123"/>
<text text-anchor="middle" x="180" y="-101.3" font-family="Times,serif" font-size="14.00">9</text>
</g>
<!-- 9&#45;&gt;10 -->
<g id="edge9" class="edge">
<title>9&#45;&gt;10</title>
<path fill="none" stroke="black" d="M224.59,-176.19C216.84,-163.98 205.65,-146.37 196.42,-131.84"/>
<polygon fill="black" stroke="black" points="199.29,-129.84 190.97,-123.27 193.38,-133.59 199.29,-129.84"/>
<text text-anchor="middle" x="215" y="-144.8" font-family="Times,serif" font-size="14.00"> i</text>
</g>
<!-- 11 -->
<g id="node12" class="node">
<title>11</title>
<polygon fill="none" stroke="black" points="252,-123 216,-123 216,-87 252,-87 252,-123"/>
<text text-anchor="middle" x="234" y="-101.3" font-family="Times,serif" font-size="14.00">8</text>
</g>
<!-- 9&#45;&gt;11 -->
<g id="edge10" class="edge">
<title>9&#45;&gt;11</title>
<path fill="none" stroke="black" d="M234,-173.8C234,-162.16 234,-146.55 234,-133.24"/>
<polygon fill="black" stroke="black" points="237.5,-133.18 234,-123.18 230.5,-133.18 237.5,-133.18"/>
<text text-anchor="middle" x="243.5" y="-144.8" font-family="Times,serif" font-size="14.00"> pi</text>
</g>
<!-- 12 -->
<g id="node13" class="node">
<title>12</title>
<ellipse fill="none" stroke="black" cx="288" cy="-105" rx="18" ry="18"/>
</g>
<!-- 13 -->
<g id="node14" class="node">
<title>13</title>
<polygon fill="none" stroke="black" points="252,-36 216,-36 216,0 252,0 252,-36"/>
<text text-anchor="middle" x="234" y="-14.3" font-family="Times,serif" font-size="14.00">6</text>
</g>
<!-- 12&#45;&gt;13 -->
<g id="edge12" class="edge">
<title>12&#45;&gt;13</title>
<path fill="none" stroke="black" d="M275.07,-91.87C268.76,-85.49 261.39,-77.28 256,-69 251.34,-61.85 247.24,-53.55 243.88,-45.79"/>
<polygon fill="black" stroke="black" points="247.05,-44.31 240.03,-36.37 240.57,-46.95 247.05,-44.31"/>
<text text-anchor="middle" x="270" y="-57.8" font-family="Times,serif" font-size="14.00"> ppi</text>
</g>
<!-- 14 -->
<g id="node15" class="node">
<title>14</title>
<polygon fill="none" stroke="black" points="306,-36 270,-36 270,0 306,0 306,-36"/>
<text text-anchor="middle" x="288" y="-14.3" font-family="Times,serif" font-size="14.00">3</text>
</g>
<!-- 12&#45;&gt;14 -->
<g id="edge13" class="edge">
<title>12&#45;&gt;14</title>
<path fill="none" stroke="black" d="M288,-86.8C288,-75.16 288,-59.55 288,-46.24"/>
<polygon fill="black" stroke="black" points="291.5,-46.18 288,-36.18 284.5,-46.18 291.5,-46.18"/>
<text text-anchor="middle" x="311.5" y="-57.8" font-family="Times,serif" font-size="14.00"> ssippi</text>
</g>
<!-- 15&#45;&gt;12 -->
<g id="edge14" class="edge">
<title>15&#45;&gt;12</title>
<path fill="none" stroke="black" d="M288,-173.8C288,-162.16 288,-146.55 288,-133.24"/>
<polygon fill="black" stroke="black" points="291.5,-133.18 288,-123.18 284.5,-133.18 291.5,-133.18"/>
<text text-anchor="middle" x="293" y="-144.8" font-family="Times,serif" font-size="14.00"> i</text>
</g>
<!-- 16 -->
<g id="node17" class="node">
<title>16</title>
<ellipse fill="none" stroke="black" cx="358" cy="-105" rx="18" ry="18"/>
</g>
<!-- 15&#45;&gt;16 -->
<g id="edge17" class="edge">
<title>15&#45;&gt;16</title>
<path fill="none" stroke="black" d="M299.25,-177.34C310.33,-163.88 327.44,-143.11 340.34,-127.44"/>
<polygon fill="black" stroke="black" points="343.36,-129.29 347.01,-119.34 337.95,-124.84 343.36,-129.29"/>
<text text-anchor="middle" x="335.5" y="-144.8" font-family="Times,serif" font-size="14.00"> si</text>
</g>
<!-- 17 -->
<g id="node18" class="node">
<title>17</title>
<polygon fill="none" stroke="black" points="376,-36 340,-36 340,0 376,0 376,-36"/>
<text text-anchor="middle" x="358" y="-14.3" font-family="Times,serif" font-size="14.00">5</text>
</g>
<!-- 16&#45;&gt;17 -->
<g id="edge15" class="edge">
<title>16&#45;&gt;17</title>
<path fill="none" stroke="black" d="M358,-86.8C358,-75.16 358,-59.55 358,-46.24"/>
<polygon fill="black" stroke="black" points="361.5,-46.18 358,-36.18 354.5,-46.18 361.5,-46.18"/>
<text text-anchor="middle" x="372" y="-57.8" font-family="Times,serif" font-size="14.00"> ppi</text>
</g>
<!-- 18 -->
<g id="node19" class="node">
<title>18</title>
<polygon fill="none" stroke="black" points="430,-36 394,-36 394,0 430,0 430,-36"/>
<text text-anchor="middle" x="412" y="-14.3" font-family="Times,serif" font-size="14.00">2</text>
</g>
<!-- 16&#45;&gt;18 -->
<g id="edge16" class="edge">
<title>16&#45;&gt;18</title>
<path fill="none" stroke="black" d="M370.93,-91.87C377.24,-85.49 384.61,-77.28 390,-69 394.66,-61.85 398.76,-53.55 402.12,-45.79"/>
<polygon fill="black" stroke="black" points="405.43,-46.95 405.97,-36.37 398.95,-44.31 405.43,-46.95"/>
<text text-anchor="middle" x="421.5" y="-57.8" font-family="Times,serif" font-size="14.00"> ssippi</text>
</g>
</g>
</svg>
